<svg width="256" height="256" viewBox="0 0 256 256" fill="none" xmlns="http://www.w3.org/2000/svg">
  <defs>
    <linearGradient id="g1" x1="0" y1="0" x2="1" y2="1">
      <stop offset="0%" stop-color="#667eea"/>
      <stop offset="100%" stop-color="#764ba2"/>
    </linearGradient>
    <linearGradient id="g2" x1="0" y1="0" x2="1" y2="1">
      <stop offset="0%" stop-color="#f093fb"/>
      <stop offset="100%" stop-color="#f5576c"/>
    </linearGradient>
    <linearGradient id="g3" x1="0" y1="0" x2="1" y2="1">
      <stop offset="0%" stop-color="#43e97b"/>
      <stop offset="100%" stop-color="#38f9d7"/>
    </linearGradient>
  </defs>
  <circle cx="128" cy="128" r="120" fill="url(#g1)" opacity="0.12"/>
  <g transform="translate(64,64)">
    <rect x="16" y="18" rx="14" ry="14" width="96" height="80" fill="#ffffff" stroke="#222" stroke-width="3"/>
    <circle cx="48" cy="56" r="6" fill="#222"/>
    <circle cx="96" cy="56" r="6" fill="#222"/>
    <line x1="64" y1="18" x2="64" y2="0" stroke="#222" stroke-width="3" stroke-linecap="round"/>
    <circle cx="64" cy="0" r="4" fill="#222"/>
    <path d="M 36 98 L 28 110 L 44 104" fill="#ffffff" stroke="#222" stroke-width="3" stroke-linejoin="round"/>
  </g>
  <g>
    <circle cx="44" cy="84" r="12" fill="url(#g2)"/>
    <circle cx="212" cy="84" r="12" fill="url(#g3)"/>
    <circle cx="128" cy="212" r="12" fill="url(#g2)"/>
    <line x1="56" y1="90" x2="200" y2="90" stroke="#8aa0ff" stroke-width="3" opacity="0.7"/>
    <line x1="50" y1="96" x2="122" y2="202" stroke="#8aa0ff" stroke-width="3" opacity="0.5"/>
    <line x1="206" y1="96" x2="134" y2="202" stroke="#8aa0ff" stroke-width="3" opacity="0.5"/>
  </g>
  <path d="M136 126 L168 106 L152 134 L184 128 L136 162 L150 136 L120 142 Z" fill="#FFD166" stroke="#222" stroke-width="2" opacity="0.95"/>
</svg>
